PathFileType	4	(X/Y/Z)	55_2_33_p1_0-410.trc
DataRate	CameraRate	NumFrames	NumMarkers	Units	OrigDataRate	OrigDataStartFrame	OrigNumFrames
47.0	47.0	5	27	m	47.0	0	411
Frame#	Time	RHip			RKnee			RAnkle			RBigToe			RSmallToe			RHeel			LHip			LKnee			LAnkle			LBigToe			LSmallToe			LHeel			Neck			Head			Nose			RShoulder			RElbow			RWrist			RThumb			RIndex			RPinky			LShoulder			LElbow			LWrist			LThumb			LIndex			LPinky			
		X1	Y1	Z1	X2	Y2	Z2	X3	Y3	Z3	X4	Y4	Z4	X5	Y5	Z5	X6	Y6	Z6	X7	Y7	Z7	X8	Y8	Z8	X9	Y9	Z9	X10	Y10	Z10	X11	Y11	Z11	X12	Y12	Z12	X13	Y13	Z13	X14	Y14	Z14	X15	Y15	Z15	X16	Y16	Z16	X17	Y17	Z17	X18	Y18	Z18	X19	Y19	Z19	X20	Y20	Z20	X21	Y21	Z21	X22	Y22	Z22	X23	Y23	Z23	X24	Y24	Z24	X25	Y25	Z25	X26	Y26	Z26	X27	Y27	Z27	
0	0.0	0.33630146925281684	0.5571250213801333	0.6912317778386645	0.3515290136440424	0.5882457046863399	1.1669219536786184	0.35170580278642205	0.5993111319580908	1.624818549818549	0.27319254293385714	0.39949239490727934	1.6227234784456508	0.3387517401207484	0.42589627226340215	1.6401374110779319	0.32280734326410654	0.7018687928001477	1.7194486126274242	0.13925202982455162	0.5625737858398585	0.7012860895425892	0.11497003625029929	0.593580567800715	1.187338602213228	0.11386661559700026	0.5887951839897847	1.6150961704929043	0.13041423639816477	0.43603713065546823	1.6406171018727955	0.07766750161173253	0.46813266034137135	1.6482078279420789	0.1281413340028277	0.6304760717859821	1.689319835509807	0.23039435497486196	0.5718857988106182	0.20354928848738071	0.22406230408445094	0.5443353205257091	-0.04388288317265382	0.2118667538743186	0.47117646368373084	0.0810809101538903	0.3780316967070887	0.5505251894613727	0.2862139273189955	0.3836163323419971	0.5186434141203085	0.5534987493311501	0.2678310545199587	0.34256704384725606	0.7275306992950951	0.1559573011964171	0.31939858711160984	0.7777924830887645	0.15760506908156774	0.31553241407972354	0.8255821336667887	0.19947735257424962	0.383895815477517	0.8767769402319713	0.08318118545487935	0.6099288926599219	0.277919703608638	0.06075216528891329	0.5200927773387218	0.541563068921889	0.1291866767622019	0.37213564180904984	0.7168107247927413	0.16649077608243068	0.31884031448898564	0.7697005577588036	0.1683982712936004	0.316362118856792	0.8200175189112033	0.1650124812774678	0.35099701514958814	0.854125863100486
1	0.02127659574468085	0.33630407996092904	0.5570056774141868	0.6910927334283784	0.3514777701906879	0.5883812717314996	1.1670248676920254	0.34851541483188875	0.6154406496409558	1.6350705150715747	0.2731746064954968	0.3996804086045157	1.6227966461032095	0.33800201124399154	0.4358866133956866	1.6472042015166632	0.3236900006627323	0.7016681765622991	1.7130435305206309	0.13926707187100723	0.5623554274184738	0.7012034570424183	0.11405667287057271	0.5930414071290606	1.1911333310279255	0.11727409786418036	0.5893567023508919	1.6100775541804293	0.13171751528273412	0.4517515148043712	1.6514335095538533	0.07817690809989332	0.4666276800100097	1.6519532472747311	0.12714509058214368	0.6290700208167459	1.6835516307980094	0.23037299700033603	0.5719038106122365	0.20352815371132543	0.22405880456419908	0.5444001365044373	-0.04384141000353926	0.21554599584877043	0.48141937186519734	0.08221697849659983	0.37796193218439006	0.5504362509182815	0.28618219688067387	0.3837091969132748	0.5185179500499258	0.553439066106908	0.2677822301781005	0.34250496627832744	0.7279823423413623	0.16234638535284396	0.320512296710982	0.797947218544981	0.16213454147007242	0.3267279163396389	0.8384902738192741	0.20369991327349257	0.38544254847533144	0.8774982476476437	0.08335023374994824	0.6100347202723142	0.2778330141351356	0.060509866694774754	0.5210644541009282	0.538102171226894	0.1289877379071948	0.38171491266798535	0.7243334130676822	0.17577797658645197	0.3326251953585385	0.7783535936750738	0.18121200010999036	0.3391963666446738	0.8333173259245028	0.16534400722812598	0.3514132050545565	0.8546263134666708
2	0.0425531914893617	0.3391674255437784	0.542776083368199	0.6864562118337783	0.3517507632796018	0.5867467919152918	1.1706734305204822	0.34857160611109606	0.6156174494062667	1.6351459755564404	0.2730014438197363	0.39920884897246617	1.623039701454375	0.3413375502106325	0.4442179295192937	1.6534879138436853	0.32386260932518407	0.7019623771879341	1.7135658457153045	0.13927675771081116	0.5623761887696531	0.7013477236172077	0.1138304147736325	0.5920828810407976	1.1810847304555425	0.11836946260720442	0.58933299371272	1.6052252113898267	0.13172939631010971	0.4517648692078728	1.6513837825269804	0.07921501871652659	0.466392621418674	1.6477453952942045	0.12719549348007606	0.629136946666226	1.6835097384545576	0.2303872288030124	0.5719391680880064	0.2035458576612628	0.2240601332899791	0.5444395487794332	-0.04383668186904566	0.21555775746553288	0.4814376391951576	0.08221260488417186	0.37803100589304545	0.5505000379269999	0.2861869680474757	0.3860751282065278	0.5055124949802241	0.5496303476997646	0.26782485311890414	0.34266502370181307	0.7281598291436105	0.1652715190520493	0.3080023880285803	0.7887023034967872	0.16970676264848986	0.3140048793086285	0.8365534096320426	0.20464566411833257	0.3855433788671433	0.8744648173365164	0.08329832820815954	0.6098527444717987	0.27788926945753284	0.06051611104775186	0.5211676360079684	0.5381847690650232	0.13748563310376427	0.371441720617179	0.7245354255985846	0.1795141535916005	0.32024596949818385	0.7763856952904263	0.18464976442679293	0.3267863848113327	0.8284387583347605	0.1687010233736635	0.33949532774571606	0.8500014772263187
3	0.06382978723404255	0.3391657846358173	0.5427451907623153	0.686556024873396	0.3526650071189351	0.58770903472684	1.1762940063238922	0.35372520676695995	0.6002458007703385	1.6254839795725287	0.27700221146262854	0.40921920118597865	1.6304001107302584	0.34106658565255227	0.44331228716428134	1.6530980497213732	0.3239931891606593	0.7019543731848779	1.7137846377876236	0.13883834153163652	0.5622199292045783	0.7046500617948478	0.11393517694284652	0.5926528665285775	1.191010239961031	0.11832306265762575	0.5892619846784947	1.6051754438443924	0.13160326093740568	0.45180064077841664	1.6511049485069362	0.07885910927164756	0.46828615866946804	1.643873680369883	0.134127719007175	0.6340959158204597	1.68564493875106	0.23040030296873476	0.572052677032365	0.20358366889595098	0.22402209383868252	0.5445101982925503	-0.04376533668043516	0.21564012146878075	0.48132817065249545	0.08211645496797687	0.3780785868386597	0.5506933508722235	0.2861644515010149	0.3860979277183587	0.5055551449393001	0.5494173717358858	0.2719873817480418	0.3530204921455956	0.7319031570413362	0.16561982454858631	0.30790216212514404	0.7884775165954055	0.17006028459377717	0.3139591150266676	0.8363721930957404	0.20878834587924888	0.3853951120224871	0.8742501934260476	0.08729553790873996	0.6216921929451138	0.2834834598339713	0.060489877482974644	0.5212658400381859	0.5382065523933767	0.1376672383551662	0.37160523883455504	0.7245576599676498	0.17898493627330767	0.31937298514830514	0.7732364975938936	0.18471998227385536	0.3267085605277064	0.8283256922184771	0.16878883875099737	0.3394234390604396	0.8498885478008777
4	0.0851063829787234	0.3347301916108783	0.5416829566582096	0.6862230483427562	0.3511130065064462	0.5869159726674258	1.1746529266440247	0.34951059104054016	0.615428577335463	1.6302480219231308	0.27396460474135065	0.39928882626395495	1.6180352687375545	0.34105321316763815	0.4433079570122261	1.6530309597606767	0.32396683481986477	0.7019989552205035	1.7136143601158844	0.142364332584985	0.5485812587257677	0.6997285858097607	0.11297184638647063	0.5915243919041834	1.1854962216950005	0.11926382719450658	0.5904594938112292	1.6110648556701976	0.13162452616368833	0.4516740044152756	1.6510877397899295	0.07879648872107119	0.4685428416759218	1.6440165818351944	0.13405033952023082	0.6339764597417566	1.6856264825637046	0.23040046126991431	0.5720379705173602	0.20357489676752047	0.22403485197325468	0.5444849334664114	-0.04376132171905251	0.2156978840555987	0.4814469633766012	0.08205621587642196	0.37815941552704657	0.5506625993102754	0.28614520685156103	0.3860832573894205	0.5055098283520449	0.5494499354223672	0.2719962773179541	0.3532229893182193	0.732211881741091	0.1653708761665339	0.30758989315111385	0.7909005162464066	0.16944252403670304	0.31476919677356524	0.835722471142488	0.2088216664871499	0.38510406812771936	0.8741072040465948	0.08336058360071338	0.6100498649055005	0.2778733315770536	0.06082388943010464	0.5214614526514036	0.5345838364435526	0.14194866117084007	0.3733014179656325	0.7250248819357032	0.18303872248991476	0.3218881767478799	0.774153295232866	0.18478730595505555	0.32645990409577336	0.8282838562927974	0.17231296797956566	0.34893835822445163	0.8538141106085883
